Format                           : MPEG-4
Format profile                   : Base Media
Codec ID                         : isom
File size                        : 650 MiB
Duration                         : 1h 35mn
Overall bit rate                 : 946 Kbps
Encoded date                     : UTC 2011-07-07 10:39:17
Tagged date                      : UTC 2011-07-07 10:39:17

Video
ID                               : 1
Format                           : AVC
Format/Info                      : Advanced Video Codec
Format profile                   : High@L4.1
Format settings, CABAC           : Yes
Format settings, ReFrames        : 4 frames
Codec ID                         : avc1
Codec ID/Info                    : Advanced Video Coding
Duration                         : 1h 35mn
Bit rate mode                    : Variable
Bit rate                         : 815 Kbps
Maximum bit rate                 : 4 381 Kbps
Width                            : 1 280 pixels
Height                           : 528 pixels
Display aspect ratio             : 2.40:1
Frame rate mode                  : Constant
Frame rate                       : 23.976 fps
Color space                      : YUV
Chroma subsampling               : 4:2:0
Bit depth                        : 8 bits
Scan type                        : Progressive
Bits/(Pixel*Frame)               : 0.050
Stream size                      : 559 MiB (86%)
Title                            : Imported with GPAC 0.4.6-DEV (build 1)
Writing library                  : x264 core 92 r1510 33d382a

Encoded date                     : UTC 2011-07-07 10:39:17
Tagged date                      : UTC 2011-07-07 10:42:09

Audio
ID                               : 2
Format                           : AAC
Format/Info                      : Advanced Audio Codec
Format version                   : Version 4
Format profile                   : LC
Format settings, SBR             : No
Codec ID                         : 40
Duration                         : 1h 35mn
Bit rate mode                    : Variable
Bit rate                         : 128 Kbps
Maximum bit rate                 : 169 Kbps
Channel(s)                       : 2 channels
Channel positions                : Front: L R
Sampling rate                    : 48.0 KHz
Stream size                      : 87.8 MiB (14%)
Encoded date                     : UTC 2011-07-07 10:41:58
Tagged date                      : UTC 2011-07-07 10:42:09

